<svg xmlns="http://www.w3.org/2000/svg" xmlns:xlink="http://www.w3.org/1999/xlink" viewBox="0 0 24 24" fill="#FFFFFF">
  <path d="M3.4472656 2.0332031L2.0332031 3.4472656L3.4375 4.8535156C2.5705 5.8235156 2.0371094 7.096 2.0371094 8.5C2.0371094 12.671 6.9493594 16.713234 8.3183594 17.990234C9.8953594 19.460234 12.037109 21.349609 12.037109 21.349609C12.037109 21.349609 14.178859 19.460234 15.755859 17.990234C15.872859 17.881234 16.020594 17.746609 16.183594 17.599609L19.033203 20.447266L20.447266 19.033203L3.4472656 2.0332031 z M 7.5371094 3C7.4491094 3 7.3643438 3.0096719 7.2773438 3.0136719L12.146484 7.8828125L12.160156 7.8691406L17.625 13.333984C17.621 13.338984 17.616328 13.344609 17.611328 13.349609L19.03125 14.769531C20.57925 13.000531 22.037109 10.771 22.037109 8.5C22.037109 5.462 19.575109 3 16.537109 3C13.642109 3 12.037109 5.0898438 12.037109 5.0898438C12.037109 5.0898438 10.432109 3 7.5371094 3 z" fill="#FFFFFF" />
</svg>