<svg xmlns="http://www.w3.org/2000/svg" xmlns:xlink="http://www.w3.org/1999/xlink" viewBox="0 0 50 50" fill="#FFFFFF">
  <path d="M21 2C19.355469 2 18 3.355469 18 5L18 7L8 7C7.640625 6.996094 7.304688 7.183594 7.121094 7.496094C6.941406 7.808594 6.941406 8.191406 7.121094 8.503906C7.304688 8.816406 7.640625 9.003906 8 9L9 9L9 45C9 46.652344 10.347656 48 12 48L38 48C39.652344 48 41 46.652344 41 45L41 9L42 9C42.359375 9.003906 42.695313 8.816406 42.878906 8.503906C43.058594 8.191406 43.058594 7.808594 42.878906 7.496094C42.695313 7.183594 42.359375 6.996094 42 7L32 7L32 5C32 3.355469 30.644531 2 29 2 Z M 21 4L29 4C29.554688 4 30 4.445313 30 5L30 7L20 7L20 5C20 4.445313 20.445313 4 21 4 Z M 18 20C18.253906 20 18.511719 20.097656 18.707031 20.292969L25 26.585938L31.292969 20.292969C31.683594 19.902344 32.316406 19.902344 32.707031 20.292969C33.097656 20.683594 33.097656 21.316406 32.707031 21.707031L26.414063 28L32.707031 34.292969C33.097656 34.683594 33.097656 35.316406 32.707031 35.707031C32.511719 35.902344 32.257813 36 32 36C31.742188 36 31.488281 35.902344 31.292969 35.707031L25 29.414063L18.707031 35.707031C18.511719 35.902344 18.257813 36 18 36C17.742188 36 17.488281 35.902344 17.292969 35.707031C16.902344 35.316406 16.902344 34.683594 17.292969 34.292969L23.585938 28L17.292969 21.707031C16.902344 21.316406 16.902344 20.683594 17.292969 20.292969C17.488281 20.097656 17.746094 20 18 20Z" fill="#FFFFFF" />
</svg>