<svg xmlns="http://www.w3.org/2000/svg" xmlns:xlink="http://www.w3.org/1999/xlink" viewBox="0 0 32 32" fill="#5B5B5B">
  <path d="M6 3L6 29L17.765625 29C19.233126 30.826376 21.480367 32 24 32C26.396 32 28.534 30.929859 30 29.255859L30 32L32 32L32 26L26 26L26 28L28.445312 28C27.347313 29.221 25.768 30 24 30C20.691 30 18 27.309 18 24C18 20.691 20.691 18 24 18C27.309 18 30 20.691 30 24L32 24C32 20.280606 29.444687 17.153349 26 16.261719L26 9.5859375L19.414062 3L6 3 z M 8 5L18 5L18 11L24 11L24 16C21.979283 16 20.136244 16.75962 18.726562 18L11 18L11 20L17.082031 20C16.722543 20.619242 16.445366 21.290505 16.261719 22L11 22L11 24L16 24C16 25.060938 16.211142 26.072669 16.587891 27L8 27L8 5 z M 20 6.4140625L22.585938 9L20 9L20 6.4140625 z M 11 14L11 16L21 16L21 14L11 14 z" fill="#5B5B5B" />
</svg>