<svg xmlns="http://www.w3.org/2000/svg" xmlns:xlink="http://www.w3.org/1999/xlink" viewBox="0 0 48 48" fill="#5B5B5B">
  <path d="M42.470703 3.9863281 A 1.50015 1.50015 0 0 0 41.439453 4.4394531L4.4394531 41.439453 A 1.50015 1.50015 0 1 0 6.5605469 43.560547L15.572266 34.548828C16.310066 35.248019 17.045244 35.950415 17.789062 36.640625C19.619063 38.350625 21.339453 39.960547 22.939453 41.560547C23.219453 41.840547 23.6 42 24 42C24.4 42 24.780547 41.840547 25.060547 41.560547C26.660547 39.960547 28.380938 38.350625 30.210938 36.640625C36.990938 30.310625 44 23.75 44 18C44 14.742504 42.575346 11.815114 40.318359 9.8027344L43.560547 6.5605469 A 1.50015 1.50015 0 0 0 42.470703 3.9863281 z M 15 7C8.93 7 4 11.93 4 18C4 21.86 7.1490625 26.079609 11.289062 30.349609L34.529297 7.109375C34.029297 7.039375 33.52 7 33 7C29.58 7 26.56 8.6503906 24 11.900391C21.44 8.6503906 18.42 7 15 7 z" fill="#5B5B5B" />
</svg>